<svg width="24" height="24" viewBox="0 0 24 24" fill="none" xmlns="http://www.w3.org/2000/svg">
<g id="ui/listing-24">
<path id="Vector (Stroke)" fill-rule="evenodd" clip-rule="evenodd" d="M15.3578 4.46422C13.7327 3.74015 11.9172 3.56077 10.1819 3.95284C8.44655 4.34491 6.88447 5.28742 5.72858 6.63981C4.5727 7.99219 3.88494 9.68199 3.76788 11.4572C3.65083 13.2324 4.11075 14.9978 5.07904 16.4903C6.04734 17.9828 7.47214 19.1222 9.14094 19.7387C10.8097 20.3553 12.6331 20.4159 14.3392 19.9114C16.0452 19.407 17.5425 18.3646 18.6077 16.9397C19.6729 15.5148 20.249 13.7838 20.25 12.0047V10.4271H21.75V12.0051C21.7488 14.1077 21.068 16.1539 19.8091 17.8379C18.5502 19.5218 16.7807 20.7537 14.7645 21.3499C12.7482 21.946 10.5933 21.8744 8.62111 21.1458C6.64889 20.4172 4.96504 19.0705 3.82069 17.3067C2.67633 15.5429 2.1328 13.4564 2.27113 11.3585C2.40947 9.26053 3.22228 7.2635 4.58832 5.66523C5.95437 4.06695 7.80046 2.95308 9.85128 2.48972C11.9021 2.02637 14.0478 2.23836 15.9683 3.09408L16.6533 3.39933L16.0428 4.76947L15.3578 4.46422Z" fill="#1E1852"/>
<path id="Vector (Stroke)_2" fill-rule="evenodd" clip-rule="evenodd" d="M22.0606 5.01345L11.7695 15.0473L7.93945 11.3167L8.98607 10.2422L11.769 12.9528L21.0134 3.93945L22.0606 5.01345Z" fill="#1E1852"/>
</g>
</svg>
