<svg xmlns="http://www.w3.org/2000/svg" viewBox="0 0 600 100" width="600" height="100"><title>LOGO_ACCOR_ALL</title><path d="M133.121 95.654h-12.65c-5.31 0-8-1.18-10-3.78-2-2.6-2.09-7-2.09-10.94V6.984h16.26v76.34c0 6.05.65 10.35 8.42 12.07v.26zm-33.25-.04h-20.35l-15-32.5c-8.17 4.44-12.83 14.7-21.11 21.49a48.21 48.21 0 0 1-15.29 8.63 62.15 62.15 0 0 1-9.29 2.35c-.76.07-1.27 0-1.37-.22-.1-.22.1-.36.9-.75a51.46 51.46 0 0 0 7-3.62c2.92-2.06 4.59-4.26 4.73-6-.79-2.81-6.54-9.1-.68-20.62 2.09-4.15 3.9-7.12 5.2-10.11a44.42 44.42 0 0 0 2.93-11.89c0-.21.07-.21.18-.07 2.85 2.89 13.92 14.23 12.29 25.54 3.69-1.41 10-5.71 13-8 3.11-2.42 5.13-4.91 8.42-5 2.93 0 3.18 1.37 5.53 1.66a4.08 4.08 0 0 0 1.88-.25c.18-.07.14-.29-.15-.36-3.18-.76-4-3.36-8.09-3.36-3.69 0-6.65 3.39-8.79 4.8l-10.4-21.67c-4.34-9.1-3-15.71 6.58-28.72zm64.3.04h-12.65c-5.32 0-8-1.18-10-3.78-2-2.6-2.1-7-2.1-10.94V6.984h16.29v76.34c0 6.05.65 10.35 8.42 12.07v.26zm16.52-74.76l-1.91 4.91h3.87zm3 7.36h-6l-.83 1.92h-3.25l6.43-14.63h1.23l6.44 14.63h-3.22zm20.28-12.02a7 7 0 0 1 2.68 2.67l-2.24 1.59a4.77 4.77 0 0 0-4.19-2.46 4.58 4.58 0 0 0-3.4 1.34 4.66 4.66 0 0 0-1.34 3.47 4.57 4.57 0 0 0 4.74 4.76 4.78 4.78 0 0 0 4.19-2.43l2.28 1.59a6.81 6.81 0 0 1-2.68 2.67 8.11 8.11 0 0 1-9.36-1.19 7.58 7.58 0 0 1 0-10.8 7.69 7.69 0 0 1 5.53-2.17 7.41 7.41 0 0 1 3.79.96zm19.99 0a7 7 0 0 1 2.68 2.67l-2.23 1.59a4.77 4.77 0 0 0-4.19-2.46 4.58 4.58 0 0 0-3.4 1.34 4.66 4.66 0 0 0-1.34 3.47 4.57 4.57 0 0 0 4.74 4.76 4.78 4.78 0 0 0 4.19-2.43l2.28 1.59a6.81 6.81 0 0 1-2.68 2.67 8.11 8.11 0 0 1-9.36-1.19 7.58 7.58 0 0 1 0-10.8 7.69 7.69 0 0 1 5.53-2.17 7.41 7.41 0 0 1 3.78.96zm12.83 3.14a5.18 5.18 0 0 0 0 6.93 4.93 4.93 0 0 0 6.76 0 5.15 5.15 0 0 0 0-6.93 4.51 4.51 0 0 0-3.36-1.34 4.57 4.57 0 0 0-3.4 1.34zm8.9-1.92a7.18 7.18 0 0 1 2.27 5.39 7.29 7.29 0 0 1-2.27 5.41 7.72 7.72 0 0 1-5.53 2.17 7.57 7.57 0 0 1-5.5-2.17 7.53 7.53 0 0 1 0-10.8 8.12 8.12 0 0 1 11 0zm12.29 4.92h2.49a2.19 2.19 0 0 0 1.63-.58 2 2 0 0 0 .58-1.52 2.08 2.08 0 0 0-.62-1.52 2.22 2.22 0 0 0-1.65-.58h-2.49v4.19zm6 7.8l-3.8-5.17h-2.2v5.17h-3v-14.63h5.49a5.5 5.5 0 0 1 3.8 1.3 4.42 4.42 0 0 1 1.48 3.43 4.28 4.28 0 0 1-.69 2.46 4.66 4.66 0 0 1-1.88 1.66l4.16 5.78zm-80.94 29.29v2.71h-9.4v-14.63h3v11.92zm6.22-11.92h3v14.63h-3zm23.17-.04l-6.4 14.63h-1.23l-6.43-14.63h3.4l3.65 8.89 3.65-8.89zm16.23 11.96v2.71h-10.12v-14.63h9.87v2.67h-6.87v2.96h5.03v2.57h-5.03v3.72zm-45.62 32.92v2.71h-9.4v-14.63h3v11.92zm6.22-11.92h3v14.63h-3zm13.66 14.63h-3v-14.67h1.16l6 7.69 6-7.69h1.19v14.67h-3v-7.84l-3.68 4.62h-.98l-3.69-4.62zm19.05-14.63h3v14.63h-3zm21.48 0v2.67h-4.7v11.92h-3.01v-11.92h-4.69v-2.67zm15.54 11.92v2.71h-9.4v-14.63h3v11.92zm16.34 0v2.71h-10.12v-14.63h9.86v2.67h-6.86v2.96h5.02v2.57h-5.02v3.72zm14.08-11.45a5.32 5.32 0 0 1 1.92 2l-2 1.59a3.35 3.35 0 0 0-2.79-1.7 2.23 2.23 0 0 0-1.3.36 1.15 1.15 0 0 0-.5 1.05 1.11 1.11 0 0 0 .39.9 5.84 5.84 0 0 0 1.34.76l1.66.73a8.33 8.33 0 0 1 2.75 1.8 3.6 3.6 0 0 1 .9 2.46 3.89 3.89 0 0 1-1.44 3.18 5.69 5.69 0 0 1-3.69 1.19 6.38 6.38 0 0 1-3.32-.87 6.23 6.23 0 0 1-2.32-2.35l2.06-1.55a4.39 4.39 0 0 0 3.58 2.13 2.37 2.37 0 0 0 1.52-.43 1.46 1.46 0 0 0 .54-1.2 1.3 1.3 0 0 0-.3-.81 1.84 1.84 0 0 0-.58-.51c-.22-.1-.54-.28-1-.5l-1.59-.72a8.09 8.09 0 0 1-2.64-1.77 3.48 3.48 0 0 1-.9-2.46 3.77 3.77 0 0 1 1.37-3 5.3 5.3 0 0 1 3.47-1.15 6 6 0 0 1 2.87.87zm16.39 0a5.39 5.39 0 0 1 1.92 2l-2 1.59a3.35 3.35 0 0 0-2.78-1.7 2.21 2.21 0 0 0-1.3.36 1.16 1.16 0 0 0-.51 1.05 1.11 1.11 0 0 0 .4.9 5.62 5.62 0 0 0 1.34.76l1.66.73a8.44 8.44 0 0 1 2.75 1.8 3.64 3.64 0 0 1 .9 2.46 3.87 3.87 0 0 1-1.45 3.18 5.65 5.65 0 0 1-3.68 1.19 6.44 6.44 0 0 1-3.33-.87 6.2 6.2 0 0 1-2.31-2.35l2.06-1.55a4.37 4.37 0 0 0 3.58 2.13 2.34 2.34 0 0 0 1.51-.43 1.44 1.44 0 0 0 .55-1.2 1.31 1.31 0 0 0-.26-.79 1.93 1.93 0 0 0-.57-.51c-.22-.1-.55-.28-1-.5l-1.59-.72a8 8 0 0 1-2.64-1.77 3.44 3.44 0 0 1-.91-2.46 3.74 3.74 0 0 1 1.38-3 5.26 5.26 0 0 1 3.47-1.15 6.21 6.21 0 0 1 2.81.85zm72.18-55.08a8 8 0 0 1 1.75 5.34 7.5 7.5 0 0 1-3.11 6.46q-3.1 2.26-9.16 2.27h-15.05V7.264h14.08q5.46 0 8.47 2.19a7.23 7.23 0 0 1 3 6.21 7.75 7.75 0 0 1-1.33 4.59 8.07 8.07 0 0 1-3.66 2.83 8.68 8.68 0 0 1 5.01 2.77zm-22.09-15.74v11.85h10.4a10.5 10.5 0 0 0 6.11-1.52 5.6 5.6 0 0 0 0-8.82 10.51 10.51 0 0 0-6.11-1.51zm18.14 25.47a5.2 5.2 0 0 0 2.24-4.67q0-6.11-8.86-6.11h-11.52v12.27h11.52q4.38 0 6.62-1.49zm16.84.98q-3.54-3.64-3.54-10.59V7.264h3.45v18.57q0 5.68 2.57 8.49c1.71 1.86 4.18 2.8 7.41 2.8 3.23 0 5.76-.94 7.47-2.8 1.71-1.86 2.56-4.7 2.56-8.49V7.264h3.36v18.71q0 6.94-3.52 10.59-3.52 3.65-9.87 3.61-6.35 0-9.89-3.61zm35.71 2.47a12.77 12.77 0 0 1-5.15-3.08l1.35-2.66a12.94 12.94 0 0 0 4.71 2.87 17.25 17.25 0 0 0 6.07 1.1q4.38 0 6.57-1.61a5 5 0 0 0 2.2-4.18 4.17 4.17 0 0 0-1.19-3.12 8 8 0 0 0-2.92-1.8 47.58 47.58 0 0 0-4.81-1.38 51.06 51.06 0 0 1-5.88-1.79 9.61 9.61 0 0 1-3.75-2.64 7 7 0 0 1-1.57-4.8 8.14 8.14 0 0 1 1.31-4.5 8.93 8.93 0 0 1 4-3.25 16.55 16.55 0 0 1 6.72-1.21 19.93 19.93 0 0 1 5.48.77 15.73 15.73 0 0 1 4.69 2.12l-1.17 2.76a15.72 15.72 0 0 0-4.38-2 16.44 16.44 0 0 0-4.57-.68c-2.86 0-5 .55-6.46 1.66a5.11 5.11 0 0 0-2.17 4.26 4.22 4.22 0 0 0 1.19 3.15 7.72 7.72 0 0 0 3 1.82q1.8.63 4.83 1.38a47.46 47.46 0 0 1 5.81 1.75 9.35 9.35 0 0 1 3.75 2.61 6.92 6.92 0 0 1 1.54 4.74 8 8 0 0 1-1.33 4.5 8.94 8.94 0 0 1-4.08 3.22 17.08 17.08 0 0 1-6.76 1.19 21 21 0 0 1-7.03-1.2zm26.66-31.77h3.46v32.66h-3.46zm41.38 0v32.66h-2.85l-21-26.5v26.5h-3.45V7.264h2.85l21 26.5v-26.5zm33.73 29.67v3h-23.09V7.264h22.39v3h-18.94v11.61h16.88v2.94h-16.88v12.13zm10.14 2.1a12.77 12.77 0 0 1-5.15-3.08l1.35-2.66a12.94 12.94 0 0 0 4.72 2.88 17.25 17.25 0 0 0 6.07 1.1q4.38 0 6.57-1.61a5 5 0 0 0 2.2-4.18 4.17 4.17 0 0 0-1.19-3.12 8.09 8.09 0 0 0-2.92-1.8 47.58 47.58 0 0 0-4.8-1.38 51.06 51.06 0 0 1-5.88-1.79 9.64 9.64 0 0 1-3.76-2.64 7 7 0 0 1-1.56-4.8 8.14 8.14 0 0 1 1.31-4.5 8.88 8.88 0 0 1 4-3.25 16.55 16.55 0 0 1 6.72-1.21 19.93 19.93 0 0 1 5.48.77 15.73 15.73 0 0 1 4.64 2.12l-1.17 2.76a15.85 15.85 0 0 0-4.38-2 16.44 16.44 0 0 0-4.57-.68c-2.87 0-5 .55-6.47 1.66a5.13 5.13 0 0 0-2.16 4.26 4.22 4.22 0 0 0 1.19 3.15 7.65 7.65 0 0 0 3 1.82q1.8.63 4.83 1.38a48 48 0 0 1 5.81 1.75 9.42 9.42 0 0 1 3.75 2.61 6.92 6.92 0 0 1 1.54 4.74 8 8 0 0 1-1.33 4.5 9 9 0 0 1-4.08 3.22 17.11 17.11 0 0 1-6.76 1.19 20.92 20.92 0 0 1-7-1.21zm28.69 0a12.77 12.77 0 0 1-5.15-3.08l1.35-2.66a12.94 12.94 0 0 0 4.71 2.87 17.23 17.23 0 0 0 6.06 1.1q4.39 0 6.58-1.61a5 5 0 0 0 2.19-4.18 4.14 4.14 0 0 0-1.19-3.12 8 8 0 0 0-2.91-1.8 47.12 47.12 0 0 0-4.81-1.38 51.43 51.43 0 0 1-5.87-1.79 9.57 9.57 0 0 1-3.76-2.64 7 7 0 0 1-1.56-4.8 8.13 8.13 0 0 1 1.3-4.5 9 9 0 0 1 4-3.25 16.53 16.53 0 0 1 6.71-1.21 19.94 19.94 0 0 1 5.49.77 15.85 15.85 0 0 1 4.64 2.12l-1.17 2.76a15.85 15.85 0 0 0-4.38-2 16.45 16.45 0 0 0-4.58-.68q-4.29 0-6.46 1.66a5.14 5.14 0 0 0-2.17 4.26 4.26 4.26 0 0 0 1.19 3.15 7.76 7.76 0 0 0 3 1.82c1.2.42 2.8.88 4.83 1.38a47.23 47.23 0 0 1 5.8 1.75 9.46 9.46 0 0 1 3.76 2.61 6.92 6.92 0 0 1 1.54 4.74 8 8 0 0 1-1.33 4.5 9 9 0 0 1-4.08 3.22 17.13 17.13 0 0 1-6.77 1.19 20.9 20.9 0 0 1-6.96-1.2zm-183.96 27.2h-11.47v-3h26.4v3h-11.47v29.66h-3.46zm42.73 29.66l-7.46-10.49a24.48 24.48 0 0 1-2.61.14h-8.77v10.35h-3.45v-32.65h12.22q6.24 0 9.79 3a10.13 10.13 0 0 1 3.55 8.21 10.62 10.62 0 0 1-1.94 6.46 10.76 10.76 0 0 1-5.53 3.8l8 11.19zm-2.75-15.44a8.41 8.41 0 0 0 0-12.1c-1.71-1.42-4.18-2.12-7.42-2.12h-8.67v16.37h8.67q4.86 0 7.42-2.15zm34.66 6.72h-18.19l-3.92 8.72h-3.59l14.92-32.65h3.41l14.92 32.65h-3.64zm-1.26-2.8l-7.84-17.54-7.83 17.54zm39.7-21.13l-14.46 32.65h-3.43l-14.46-32.65h3.73l12.5 28.36 12.6-28.36zm27.8 29.67v3h-23.09v-32.67h22.4v3h-18.95v11.61h16.89v2.94h-16.89v12.13zm8.12-29.67h3.45v29.67h18.29v3h-21.74z" fill="#1e1852"/></svg>