<svg data-v-aae1d98a="" xmlns="http://www.w3.org/2000/svg" fill="" height="25" viewBox="0 0 24 24" width="25" focusable="false" aria-hidden="true"><path data-v-aae1d98a="" fill-rule="evenodd" clip-rule="evenodd" d="M12 20.3828C13.3991 20.3828 14.7088 19.9997 15.8298 19.3326L15.7599 19.0923C15.6009 18.5459 15.4804 18.1888 15.3729 17.949C15.2647 17.7077 15.2019 17.6611 15.1999 17.6596L15.199 17.659C15.1984 17.6587 15.1946 17.6569 15.1857 17.6542C15.1659 17.6483 15.1254 17.6396 15.0466 17.6341C14.9274 17.6257 14.8039 17.6274 14.629 17.6298C14.5267 17.6312 14.4068 17.6328 14.26 17.6328H9.74002C9.5932 17.6328 9.47336 17.6312 9.37109 17.6298C9.19616 17.6274 9.07262 17.6257 8.95342 17.6341C8.87462 17.6396 8.83412 17.6483 8.8143 17.6542C8.80539 17.6569 8.80162 17.6587 8.80107 17.659L8.80013 17.6596C8.79814 17.6611 8.73537 17.7077 8.62719 17.949C8.51968 18.1888 8.39911 18.5459 8.24017 19.0923L8.17024 19.3326C9.29122 19.9997 10.6009 20.3828 12 20.3828ZM16.7416 17.3353C16.8658 17.6124 16.9844 17.9563 17.1107 18.372C18.5807 17.0028 19.5 15.0502 19.5 12.8828C19.5 8.74068 16.1421 5.38281 12 5.38281C7.85786 5.38281 4.5 8.74068 4.5 12.8828C4.5 15.0502 5.41934 17.0028 6.88933 18.372C7.01567 17.9563 7.13421 17.6124 7.25848 17.3353C7.41084 16.9955 7.60432 16.6796 7.90491 16.456C8.21936 16.2221 8.55751 16.1582 8.84849 16.1377C9.03005 16.125 9.25461 16.1278 9.47385 16.1305L9.47407 16.1305C9.56477 16.1317 9.65456 16.1328 9.74002 16.1328H14.26C14.3455 16.1328 14.4353 16.1317 14.526 16.1305L14.5262 16.1305C14.7454 16.1278 14.97 16.125 15.1515 16.1377C15.4425 16.1582 15.7807 16.2221 16.0951 16.456C16.3957 16.6796 16.5892 16.9955 16.7416 17.3353ZM21 12.8828C21 17.8534 16.9706 21.8828 12 21.8828C7.02944 21.8828 3 17.8534 3 12.8828C3 7.91225 7.02944 3.88281 12 3.88281C16.9706 3.88281 21 7.91225 21 12.8828ZM9.75 10.8828C9.75 9.64017 10.7574 8.63281 12 8.63281C13.2426 8.63281 14.25 9.64017 14.25 10.8828C14.25 12.1255 13.2426 13.1328 12 13.1328C10.7574 13.1328 9.75 12.1255 9.75 10.8828ZM12 7.13281C9.92893 7.13281 8.25 8.81174 8.25 10.8828C8.25 12.9539 9.92893 14.6328 12 14.6328C14.0711 14.6328 15.75 12.9539 15.75 10.8828C15.75 8.81174 14.0711 7.13281 12 7.13281Z" fill="white"></path></svg>
